<svg width="331" height="299" viewBox="0 0 331 299" fill="none" xmlns="http://www.w3.org/2000/svg">
<g filter="url(#filter0_di_213_95)">
<path d="M268.966 264.021C268.966 223.084 244.463 187.785 209.113 171.577C193.356 184.279 172.933 196.221 165.5 196.221C158.066 196.221 137.643 184.279 121.886 171.577C86.5371 187.785 62.0332 223.084 62.0332 264.021C62.0332 268.848 62.3737 273.595 63.0323 278.242C63.0338 278.252 63.0353 278.262 63.0367 278.273H267.962C267.964 278.262 267.965 278.252 267.967 278.242C268.626 273.595 268.966 268.848 268.966 264.021Z" fill="white"/>
<path d="M141.358 62.7524C124.453 62.7524 110.749 76.4798 110.749 93.4132C110.749 101.17 113.624 108.253 118.366 113.653C131.954 112.328 147.9 111.56 164.961 111.551L166.038 111.551C183.103 111.573 199.039 112.354 212.6 113.692C217.362 108.288 220.252 101.188 220.252 93.4132C220.252 76.4798 206.547 62.7524 189.643 62.7524C179.833 62.7524 171.102 67.3743 165.5 74.5627C159.898 67.3743 151.167 62.7524 141.358 62.7524Z" fill="white"/>
<path d="M154.482 94.0768C154.482 100.627 149.131 105.937 142.531 105.937C135.931 105.937 130.58 100.627 130.58 94.0768C130.58 87.5266 135.931 82.2168 142.531 82.2168C149.131 82.2168 154.482 87.5266 154.482 94.0768Z" fill="#212121"/>
<path d="M185.373 82.2165C179.059 82.6641 173.874 87.8109 171.844 94.0765C171.554 94.9715 171.47 97.2252 172.521 98.7757C173.839 100.722 175.979 101.676 177.932 101.461C181.54 101.013 181.991 98.9995 183.119 96.7617C184.697 93.6288 185.02 93.1813 185.824 93.1813C186.951 93.1813 188.755 97.6568 190.109 100.566C191.462 103.475 194.618 103.027 195.52 103.027C197.775 103.027 198.452 102.132 199.805 100.566C200.707 99.2232 200.541 96.6381 199.805 94.7477C195.971 84.9017 190.785 81.8328 185.373 82.2165Z" fill="#1E1E1E"/>
<path d="M218.096 133.79C218.096 127.232 194.452 121.915 165.285 121.915C136.118 121.915 112.474 127.232 112.474 133.79C112.474 147.609 154.722 182.804 165.285 182.804C175.847 182.804 218.096 147.609 218.096 133.79Z" fill="#FFC020"/>
<path d="M136.774 158.451C148.815 168.292 159.358 174.632 163.719 175.199C164.381 175.285 165.125 175.4 165.686 175.4C166.25 175.4 166.993 175.285 167.655 175.199C172.016 174.632 182.56 168.292 194.6 158.451C198.367 155.372 201.637 151.993 204.675 149.121C200.598 152.306 194.618 155.131 187.702 157.926C179.148 161.383 171.281 163.915 165.686 163.971C160.094 163.915 152.226 161.383 143.672 157.926C136.757 155.131 130.776 152.306 126.7 149.121C129.738 151.993 133.008 155.372 136.774 158.451Z" fill="#FF3E03"/>
<path fill-rule="evenodd" clip-rule="evenodd" d="M32.1761 243.478C30.5788 245.523 28.7027 248.496 27.5444 250.82C20.9603 264.021 20 278.273 20 278.273L27.5444 278.242H63.0325C62.3738 273.595 62.0334 268.848 62.0334 264.021C62.0334 223.084 86.5373 187.785 121.886 171.577C137.643 184.279 158.067 196.221 165.5 196.221C172.934 196.221 193.356 184.279 209.114 171.577C244.463 187.785 268.967 223.084 268.967 264.021C268.967 268.848 268.626 273.595 267.967 278.242H303.456L311 278.211C311 278.211 309.935 264.021 303.456 251.035C302.295 248.71 300.416 245.734 298.817 243.687C289.539 231.817 276.947 218.401 276.947 218.401C276.947 218.401 264.894 203.674 260.158 197.004C252.442 186.137 249.001 178.335 244.915 168.26C237.498 149.972 238.288 122.875 238.288 122.875L237.626 84.6208C236.079 69.0599 230.557 55.4372 228.568 51.9862C226.581 48.5352 218.584 36.7407 208.908 30.8062C194.107 21.729 182.922 19.9953 165.39 20C147.884 20.0048 136.718 21.7274 121.941 30.7961C112.28 36.725 104.297 48.5086 102.312 51.9563C100.327 55.404 94.8129 69.014 93.2691 84.5603L92.6074 122.778C92.6074 122.778 93.3963 149.851 85.9908 168.121C81.9116 178.186 78.4769 185.981 70.7727 196.839C66.0448 203.502 54.0108 218.215 54.0108 218.215C54.0108 218.215 41.4393 231.62 32.1761 243.478ZM141.358 62.7523C124.453 62.7523 110.749 76.4797 110.749 93.4131C110.749 101.17 113.624 108.253 118.365 113.653C131.954 112.327 147.9 111.56 164.961 111.551L166.038 111.551C183.103 111.573 199.039 112.354 212.6 113.692C217.362 108.287 220.252 101.188 220.252 93.4131C220.252 76.4797 206.547 62.7523 189.643 62.7523C179.833 62.7523 171.102 67.3742 165.5 74.5626C159.898 67.3742 151.167 62.7523 141.358 62.7523ZM218.095 133.79C218.095 127.232 194.452 121.915 165.284 121.915C136.118 121.915 112.473 127.232 112.473 133.79C112.473 147.609 154.722 182.804 165.284 182.804C175.847 182.804 218.095 147.609 218.095 133.79Z" fill="#212121"/>
</g>
<defs>
<filter id="filter0_di_213_95" x="0" y="0" width="331" height="298.272" filterUnits="userSpaceOnUse" color-interpolation-filters="sRGB">
<feFlood flood-opacity="0" result="BackgroundImageFix"/>
<feColorMatrix in="SourceAlpha" type="matrix" values="0 0 0 0 0 0 0 0 0 0 0 0 0 0 0 0 0 0 127 0" result="hardAlpha"/>
<feOffset/>
<feGaussianBlur stdDeviation="10"/>
<feComposite in2="hardAlpha" operator="out"/>
<feColorMatrix type="matrix" values="0 0 0 0 0.984314 0 0 0 0 0.737255 0 0 0 0 0.0196078 0 0 0 1 0"/>
<feBlend mode="normal" in2="BackgroundImageFix" result="effect1_dropShadow_213_95"/>
<feBlend mode="normal" in="SourceGraphic" in2="effect1_dropShadow_213_95" result="shape"/>
<feColorMatrix in="SourceAlpha" type="matrix" values="0 0 0 0 0 0 0 0 0 0 0 0 0 0 0 0 0 0 127 0" result="hardAlpha"/>
<feOffset/>
<feGaussianBlur stdDeviation="10"/>
<feComposite in2="hardAlpha" operator="arithmetic" k2="-1" k3="1"/>
<feColorMatrix type="matrix" values="0 0 0 0 0 0 0 0 0 0 0 0 0 0 0 0 0 0 1 0"/>
<feBlend mode="normal" in2="shape" result="effect2_innerShadow_213_95"/>
</filter>
</defs>
</svg>
