<svg width="192" height="192" viewBox="0 0 192 192" fill="none" xmlns="http://www.w3.org/2000/svg">
<rect width="192" height="191.979" fill="#FFC020"/>
<path d="M3.22302 167.832C2.11152 169.252 0 172.931 0 172.931V191.979H192V173.081C192 173.081 189.885 169.398 188.772 167.977C182.315 159.731 173.553 150.412 173.553 150.412C173.553 150.412 165.166 140.183 161.87 135.55C156.501 128.001 154.107 122.581 151.263 115.584C146.102 102.88 146.652 84.0576 146.652 84.0576L146.191 57.4857C145.115 46.6767 141.271 37.2141 139.888 34.817C138.504 32.4198 132.94 24.2271 126.207 20.1048C115.907 13.7996 108.124 12.5953 95.9233 12.5986C83.7414 12.6019 75.9712 13.7985 65.6883 20.0978C58.9654 24.2162 53.4101 32.4013 52.0288 34.7962C50.6475 37.1911 46.8106 46.6449 45.7362 57.4437L45.2758 83.9908C45.2758 83.9908 45.8247 102.796 40.6715 115.487C37.8328 122.478 35.4427 127.893 30.0815 135.435C26.7915 140.063 18.4173 150.283 18.4173 150.283C18.4173 150.283 9.66907 159.594 3.22302 167.832Z" fill="#212121"/>
<path d="M168 182.101C168 153.665 150.948 129.145 126.35 117.887C115.385 126.711 101.173 135.006 96 135.006C90.8273 135.006 76.6151 126.711 65.6499 117.887C41.0517 129.145 24 153.665 24 182.101C24 185.461 24.238 188.765 24.6983 192H167.302C167.762 188.765 168 185.461 168 182.101Z" fill="white"/>
<path d="M79.2 42.2954C67.4363 42.2954 57.9 51.8306 57.9 63.593C57.9 68.9808 59.9009 73.9014 63.2001 77.6523C72.6561 76.7313 83.7526 76.1983 95.6248 76.1917L96.375 76.192C108.25 76.2075 119.34 76.7496 128.776 77.6793C132.089 73.925 134.1 68.9938 134.1 63.593C134.1 51.8306 124.564 42.2954 112.8 42.2954C105.974 42.2954 99.8981 45.5058 96 50.499C92.1019 45.5058 86.0259 42.2954 79.2 42.2954Z" fill="white"/>
<path d="M88.3325 64.0539C88.3325 68.6037 84.6092 72.2921 80.0163 72.2921C75.4233 72.2921 71.7 68.6037 71.7 64.0539C71.7 59.504 75.4233 55.8157 80.0163 55.8157C84.6092 55.8157 88.3325 59.504 88.3325 64.0539Z" fill="#212121"/>
<path d="M109.829 55.8157C105.436 56.1266 101.827 59.7016 100.415 64.0539C100.213 64.6756 100.155 66.241 100.885 67.3181C101.803 68.6699 103.292 69.3329 104.651 69.1833C107.162 68.8724 107.476 67.4735 108.26 65.9191C109.359 63.743 109.584 63.4321 110.143 63.4321C110.928 63.4321 112.183 66.5409 113.124 68.5616C114.066 70.5822 116.263 70.2714 116.89 70.2714C118.459 70.2714 118.93 69.6496 119.871 68.5616C120.499 67.6289 120.384 65.8332 119.871 64.5202C117.204 57.6809 113.595 55.5492 109.829 55.8157Z" fill="#1E1E1E"/>
<path d="M132.6 91.6399C132.6 87.0841 116.146 83.3908 95.85 83.3908C75.5535 83.3908 59.1 87.0841 59.1 91.6399C59.1 101.239 88.5 125.686 95.85 125.686C103.2 125.686 132.6 101.239 132.6 91.6399Z" fill="#FFC020"/>
<path d="M76.0103 108.77C84.389 115.605 91.7261 120.01 94.7603 120.404C95.2212 120.464 95.7392 120.543 96.1302 120.543C96.5211 120.543 97.0391 120.464 97.5 120.404C100.534 120.01 107.871 115.605 116.25 108.77C118.871 106.631 121.146 104.284 123.26 102.289C120.424 104.501 116.262 106.464 111.45 108.405C105.497 110.807 100.023 112.565 96.1302 112.604C92.2378 112.565 86.763 110.807 80.8103 108.405C75.9983 106.464 71.8365 104.501 69 102.289C71.1141 104.284 73.3891 106.631 76.0103 108.77Z" fill="#FF3E03"/>
</svg>
